<svg width="31" height="31" viewBox="0 0 31 31" fill="none" xmlns="http://www.w3.org/2000/svg">
<path d="M22.4386 1H8.1462C4.19946 1 1 4.19946 1 8.1462V22.4386C1 26.3854 4.19946 29.5848 8.1462 29.5848H22.4386C26.3854 29.5848 29.5848 26.3854 29.5848 22.4386V8.1462C29.5848 4.19946 26.3854 1 22.4386 1Z" stroke="#521680" stroke-width="2" stroke-linecap="round" stroke-linejoin="round"/>
<path d="M21.0088 14.3921C21.1852 15.5815 20.982 16.7963 20.4282 17.8637C19.8744 18.9311 18.9981 19.7966 17.924 20.3372C16.8499 20.8779 15.6326 21.066 14.4454 20.875C13.2582 20.684 12.1615 20.1234 11.3112 19.2731C10.4609 18.4229 9.90037 17.3261 9.70933 16.1389C9.51829 14.9517 9.70647 13.7345 10.2471 12.6604C10.7877 11.5862 11.6533 10.71 12.7206 10.1561C13.788 9.6023 15.0028 9.39913 16.1923 9.57552C17.4056 9.75543 18.5289 10.3208 19.3962 11.1881C20.2635 12.0555 20.8289 13.1787 21.0088 14.3921Z" stroke="#521680" stroke-width="2" stroke-linecap="round" stroke-linejoin="round"/>
<path d="M23.1533 7.43164H23.1668" stroke="#521680" stroke-width="2" stroke-linecap="round" stroke-linejoin="round"/>
</svg>
